#N canvas 0 22 1146 723 10;
#X obj 57 378 bp~ 25;
#X obj 77 398 bp~ 31.5;
#X obj 97 418 bp~ 40;
#X obj 157 378 bp~ 50;
#X obj 177 398 bp~ 63;
#X obj 197 418 bp~ 80;
#X obj 247 378 bp~ 100;
#X obj 267 398 bp~ 125;
#X obj 287 418 bp~ 160;
#X obj 347 378 bp~ 200;
#X obj 367 398 bp~ 250;
#X obj 387 418 bp~ 315;
#X obj 447 378 bp~ 400;
#X obj 467 398 bp~ 500;
#X obj 487 418 bp~ 630;
#X obj 547 378 bp~ 800;
#X obj 567 398 bp~ 1000;
#X obj 587 418 bp~ 1250;
#X obj 647 378 bp~ 1600;
#X obj 667 398 bp~ 2000;
#X obj 687 418 bp~ 2500;
#X obj 737 378 bp~ 3150;
#X obj 757 398 bp~ 4000;
#X obj 777 418 bp~ 5000;
#X obj 837 378 bp~ 6300;
#X obj 857 398 bp~ 8000;
#X obj 877 418 bp~ 10000;
#X obj 937 378 bp~ 12500;
#X obj 977 418 bp~ 20000;
#X obj 957 398 bp~ 16000;
#X obj 57 498 env~;
#X obj 77 478 env~;
#X obj 97 458 env~;
#X obj 157 498 env~;
#X obj 177 478 env~;
#X obj 197 458 env~;
#X obj 247 498 env~;
#X obj 267 478 env~;
#X obj 287 458 env~;
#X obj 347 498 env~;
#X obj 367 478 env~;
#X obj 387 458 env~;
#X obj 447 498 env~;
#X obj 467 478 env~;
#X obj 487 458 env~;
#X obj 547 498 env~;
#X obj 567 478 env~;
#X obj 587 458 env~;
#X obj 647 498 env~;
#X obj 667 478 env~;
#X obj 687 458 env~;
#X obj 737 498 env~;
#X obj 757 478 env~;
#X obj 777 458 env~;
#X obj 837 498 env~;
#X obj 857 478 env~;
#X obj 877 458 env~;
#X obj 937 498 env~;
#X obj 957 478 env~;
#X obj 57 498 env~;
#X obj 977 458 env~;
#X obj 21 -10 inlet~;
#X obj 1029 -10 inlet;
#X obj 193 840 pack f f f f f f f f f f f f f f f f f f f f f f f f
f f f f f f;
#X obj 193 875 outlet;
#X connect 0 0 30 0;
#X connect 1 0 31 0;
#X connect 2 0 32 0;
#X connect 3 0 33 0;
#X connect 4 0 34 0;
#X connect 5 0 35 0;
#X connect 6 0 36 0;
#X connect 7 0 37 0;
#X connect 8 0 38 0;
#X connect 9 0 39 0;
#X connect 10 0 40 0;
#X connect 11 0 41 0;
#X connect 12 0 42 0;
#X connect 13 0 43 0;
#X connect 14 0 44 0;
#X connect 15 0 45 0;
#X connect 16 0 46 0;
#X connect 17 0 47 0;
#X connect 18 0 48 0;
#X connect 19 0 49 0;
#X connect 20 0 50 0;
#X connect 21 0 51 0;
#X connect 22 0 52 0;
#X connect 23 0 53 0;
#X connect 24 0 54 0;
#X connect 25 0 55 0;
#X connect 26 0 56 0;
#X connect 27 0 57 0;
#X connect 28 0 60 0;
#X connect 29 0 58 0;
#X connect 30 0 63 0;
#X connect 31 0 63 1;
#X connect 32 0 63 2;
#X connect 33 0 63 3;
#X connect 34 0 63 4;
#X connect 35 0 63 5;
#X connect 36 0 63 6;
#X connect 37 0 63 7;
#X connect 38 0 63 8;
#X connect 39 0 63 9;
#X connect 40 0 63 10;
#X connect 41 0 63 11;
#X connect 42 0 63 12;
#X connect 43 0 63 13;
#X connect 44 0 63 14;
#X connect 45 0 63 15;
#X connect 46 0 63 16;
#X connect 47 0 63 17;
#X connect 48 0 63 18;
#X connect 49 0 63 19;
#X connect 50 0 63 20;
#X connect 51 0 63 21;
#X connect 52 0 63 22;
#X connect 53 0 63 23;
#X connect 54 0 63 24;
#X connect 55 0 63 25;
#X connect 56 0 63 26;
#X connect 57 0 63 27;
#X connect 58 0 63 28;
#X connect 60 0 63 29;
#X connect 61 0 0 0;
#X connect 61 0 1 0;
#X connect 61 0 2 0;
#X connect 61 0 3 0;
#X connect 61 0 4 0;
#X connect 61 0 5 0;
#X connect 61 0 6 0;
#X connect 61 0 7 0;
#X connect 61 0 8 0;
#X connect 61 0 9 0;
#X connect 61 0 12 0;
#X connect 61 0 10 0;
#X connect 61 0 11 0;
#X connect 61 0 13 0;
#X connect 61 0 14 0;
#X connect 61 0 15 0;
#X connect 61 0 16 0;
#X connect 61 0 17 0;
#X connect 61 0 18 0;
#X connect 61 0 19 0;
#X connect 61 0 20 0;
#X connect 61 0 21 0;
#X connect 61 0 22 0;
#X connect 61 0 23 0;
#X connect 61 0 24 0;
#X connect 61 0 25 0;
#X connect 61 0 26 0;
#X connect 61 0 27 0;
#X connect 61 0 29 0;
#X connect 61 0 28 0;
#X connect 62 0 0 2;
#X connect 62 0 1 2;
#X connect 62 0 2 2;
#X connect 62 0 3 2;
#X connect 62 0 4 2;
#X connect 62 0 5 2;
#X connect 62 0 6 2;
#X connect 62 0 7 2;
#X connect 62 0 8 2;
#X connect 62 0 9 2;
#X connect 62 0 10 2;
#X connect 62 0 11 2;
#X connect 62 0 12 2;
#X connect 62 0 13 2;
#X connect 62 0 14 2;
#X connect 62 0 15 2;
#X connect 62 0 16 2;
#X connect 62 0 17 2;
#X connect 62 0 18 2;
#X connect 62 0 19 2;
#X connect 62 0 20 2;
#X connect 62 0 21 2;
#X connect 62 0 22 2;
#X connect 62 0 23 2;
#X connect 62 0 24 2;
#X connect 62 0 25 2;
#X connect 62 0 26 2;
#X connect 62 0 27 2;
#X connect 62 0 29 2;
#X connect 62 0 28 2;
#X connect 63 0 64 0;
