#N canvas -704 322 408 210 10;
#X obj -23 80 adc~;
#X floatatom 270 145 5 0 0 0 - - -;
#N canvas 0 22 1280 752 eq-30-2 0;
#X obj 57 378 bp~ 25;
#X obj 77 398 bp~ 31.5;
#X obj 97 418 bp~ 40;
#X obj 157 378 bp~ 50;
#X obj 177 398 bp~ 63;
#X obj 197 418 bp~ 80;
#X obj 247 378 bp~ 100;
#X obj 267 398 bp~ 125;
#X obj 287 418 bp~ 160;
#X obj 347 378 bp~ 200;
#X obj 367 398 bp~ 250;
#X obj 387 418 bp~ 315;
#X obj 447 378 bp~ 400;
#X obj 467 398 bp~ 500;
#X obj 487 418 bp~ 630;
#X obj 547 378 bp~ 800;
#X obj 567 398 bp~ 1000;
#X obj 587 418 bp~ 1250;
#X obj 647 378 bp~ 1600;
#X obj 667 398 bp~ 2000;
#X obj 687 418 bp~ 2500;
#X obj 737 378 bp~ 3150;
#X obj 757 398 bp~ 4000;
#X obj 777 418 bp~ 5000;
#X obj 837 378 bp~ 6300;
#X obj 857 398 bp~ 8000;
#X obj 877 418 bp~ 10000;
#X obj 937 378 bp~ 12500;
#X obj 977 418 bp~ 20000;
#X obj 957 398 bp~ 16000;
#X obj 57 498 env~;
#X obj 77 478 env~;
#X obj 97 458 env~;
#X obj 157 498 env~;
#X obj 177 478 env~;
#X obj 197 458 env~;
#X obj 247 498 env~;
#X obj 267 478 env~;
#X obj 287 458 env~;
#X obj 347 498 env~;
#X obj 367 478 env~;
#X obj 387 458 env~;
#X obj 447 498 env~;
#X obj 467 478 env~;
#X obj 487 458 env~;
#X obj 547 498 env~;
#X obj 567 478 env~;
#X obj 587 458 env~;
#X obj 647 498 env~;
#X obj 667 478 env~;
#X obj 687 458 env~;
#X obj 737 498 env~;
#X obj 757 478 env~;
#X obj 777 458 env~;
#X obj 837 498 env~;
#X obj 857 478 env~;
#X obj 877 458 env~;
#X obj 937 498 env~;
#X obj 957 478 env~;
#X obj 57 498 env~;
#X obj 977 458 env~;
#X obj 21 -10 inlet~;
#X floatatom 57 568 5 0 0 0 - - -;
#X floatatom 77 548 5 0 0 0 - - -;
#X floatatom 97 528 5 0 0 0 - - -;
#X floatatom 157 568 5 0 0 0 - - -;
#X floatatom 177 548 5 0 0 0 - - -;
#X floatatom 197 528 5 0 0 0 - - -;
#X floatatom 247 568 5 0 0 0 - - -;
#X floatatom 267 548 5 0 0 0 - - -;
#X floatatom 287 528 5 0 0 0 - - -;
#X floatatom 347 568 5 0 0 0 - - -;
#X floatatom 367 548 5 0 0 0 - - -;
#X floatatom 387 528 5 0 0 0 - - -;
#X floatatom 447 568 5 0 0 0 - - -;
#X floatatom 467 548 5 0 0 0 - - -;
#X floatatom 487 528 5 0 0 0 - - -;
#X floatatom 547 568 5 0 0 0 - - -;
#X floatatom 567 548 5 0 0 0 - - -;
#X floatatom 587 528 5 0 0 0 - - -;
#X floatatom 647 568 5 0 0 0 - - -;
#X floatatom 667 548 5 0 0 0 - - -;
#X floatatom 687 528 5 0 0 0 - - -;
#X floatatom 737 568 5 0 0 0 - - -;
#X floatatom 757 548 5 0 0 0 - - -;
#X floatatom 777 528 5 0 0 0 - - -;
#X floatatom 837 568 5 0 0 0 - - -;
#X floatatom 857 548 5 0 0 0 - - -;
#X floatatom 877 528 5 0 0 0 - - -;
#X floatatom 937 568 5 0 0 0 - - -;
#X floatatom 957 548 5 0 0 0 - - -;
#X floatatom 977 528 5 0 0 0 - - -;
#X obj 1029 -10 inlet;
#X obj 57 597 vsl 15 128 0 127 0 0 empty empty empty 0 -9 0 10 -262144
-1 -1 0 1;
#X obj 77 597 vsl 15 128 0 127 0 0 empty empty empty 0 -9 0 10 -262144
-1 -1 0 1;
#X obj 97 597 vsl 15 128 0 127 0 0 empty empty empty 0 -9 0 10 -262144
-1 -1 0 1;
#X obj 157 597 vsl 15 128 0 127 0 0 empty empty empty 0 -9 0 10 -262144
-1 -1 0 1;
#X obj 177 597 vsl 15 128 0 127 0 0 empty empty empty 0 -9 0 10 -262144
-1 -1 0 1;
#X obj 197 597 vsl 15 128 0 127 0 0 empty empty empty 0 -9 0 10 -262144
-1 -1 0 1;
#X obj 247 597 vsl 15 128 0 127 0 0 empty empty empty 0 -9 0 10 -262144
-1 -1 0 1;
#X obj 267 597 vsl 15 128 0 127 0 0 empty empty empty 0 -9 0 10 -262144
-1 -1 0 1;
#X obj 287 597 vsl 15 128 0 127 0 0 empty empty empty 0 -9 0 10 -262144
-1 -1 1608 1;
#X obj 347 597 vsl 15 128 0 127 0 0 empty empty empty 0 -9 0 10 -262144
-1 -1 853 1;
#X obj 367 597 vsl 15 128 0 127 0 0 empty empty empty 0 -9 0 10 -262144
-1 -1 552 1;
#X obj 387 597 vsl 15 128 0 127 0 0 empty empty empty 0 -9 0 10 -262144
-1 -1 845 1;
#X obj 447 597 vsl 15 128 0 127 0 0 empty empty empty 0 -9 0 10 -262144
-1 -1 174 1;
#X obj 467 597 vsl 15 128 0 127 0 0 empty empty empty 0 -9 0 10 -262144
-1 -1 1616 1;
#X obj 487 597 vsl 15 128 0 127 0 0 empty empty empty 0 -9 0 10 -262144
-1 -1 922 1;
#X obj 547 597 vsl 15 128 0 127 0 0 empty empty empty 0 -9 0 10 -262144
-1 -1 0 1;
#X obj 567 597 vsl 15 128 0 127 0 0 empty empty empty 0 -9 0 10 -262144
-1 -1 0 1;
#X obj 587 597 vsl 15 128 0 127 0 0 empty empty empty 0 -9 0 10 -262144
-1 -1 0 1;
#X obj 647 597 vsl 15 128 0 127 0 0 empty empty empty 0 -9 0 10 -262144
-1 -1 1008 1;
#X obj 667 597 vsl 15 128 0 127 0 0 empty empty empty 0 -9 0 10 -262144
-1 -1 803 1;
#X obj 687 597 vsl 15 128 0 127 0 0 empty empty empty 0 -9 0 10 -262144
-1 -1 1767 1;
#X obj 737 597 vsl 15 128 0 127 0 0 empty empty empty 0 -9 0 10 -262144
-1 -1 1226 1;
#X obj 757 597 vsl 15 128 0 127 0 0 empty empty empty 0 -9 0 10 -262144
-1 -1 579 1;
#X obj 777 597 vsl 15 128 0 127 0 0 empty empty empty 0 -9 0 10 -262144
-1 -1 1345 1;
#X obj 837 597 vsl 15 128 0 127 0 0 empty empty empty 0 -9 0 10 -262144
-1 -1 1900 1;
#X obj 857 597 vsl 15 128 0 127 0 0 empty empty empty 0 -9 0 10 -262144
-1 -1 652 1;
#X obj 877 597 vsl 15 128 0 127 0 0 empty empty empty 0 -9 0 10 -262144
-1 -1 1718 1;
#X obj 937 597 vsl 15 128 0 127 0 0 empty empty empty 0 -9 0 10 -262144
-1 -1 1526 1;
#X obj 957 597 vsl 15 128 0 127 0 0 empty empty empty 0 -9 0 10 -262144
-1 -1 1928 1;
#X obj 977 597 vsl 15 128 0 127 0 0 empty empty empty 0 -9 0 10 -262144
-1 -1 2286 1;
#X connect 0 0 30 0;
#X connect 1 0 31 0;
#X connect 2 0 32 0;
#X connect 3 0 33 0;
#X connect 4 0 34 0;
#X connect 5 0 35 0;
#X connect 6 0 36 0;
#X connect 7 0 37 0;
#X connect 8 0 38 0;
#X connect 9 0 39 0;
#X connect 10 0 40 0;
#X connect 11 0 41 0;
#X connect 12 0 42 0;
#X connect 13 0 43 0;
#X connect 14 0 44 0;
#X connect 15 0 45 0;
#X connect 16 0 46 0;
#X connect 17 0 47 0;
#X connect 18 0 48 0;
#X connect 19 0 49 0;
#X connect 20 0 50 0;
#X connect 21 0 51 0;
#X connect 22 0 52 0;
#X connect 23 0 53 0;
#X connect 24 0 54 0;
#X connect 25 0 55 0;
#X connect 26 0 56 0;
#X connect 27 0 57 0;
#X connect 28 0 60 0;
#X connect 29 0 58 0;
#X connect 30 0 62 0;
#X connect 31 0 63 0;
#X connect 32 0 64 0;
#X connect 33 0 65 0;
#X connect 34 0 66 0;
#X connect 35 0 67 0;
#X connect 36 0 68 0;
#X connect 37 0 69 0;
#X connect 38 0 70 0;
#X connect 39 0 71 0;
#X connect 40 0 72 0;
#X connect 41 0 73 0;
#X connect 42 0 74 0;
#X connect 43 0 75 0;
#X connect 44 0 76 0;
#X connect 45 0 77 0;
#X connect 46 0 78 0;
#X connect 47 0 79 0;
#X connect 48 0 80 0;
#X connect 49 0 81 0;
#X connect 50 0 82 0;
#X connect 51 0 83 0;
#X connect 52 0 84 0;
#X connect 53 0 85 0;
#X connect 54 0 86 0;
#X connect 55 0 87 0;
#X connect 56 0 88 0;
#X connect 57 0 89 0;
#X connect 58 0 90 0;
#X connect 60 0 91 0;
#X connect 61 0 0 0;
#X connect 61 0 1 0;
#X connect 61 0 2 0;
#X connect 61 0 3 0;
#X connect 61 0 4 0;
#X connect 61 0 5 0;
#X connect 61 0 6 0;
#X connect 61 0 7 0;
#X connect 61 0 8 0;
#X connect 61 0 9 0;
#X connect 61 0 12 0;
#X connect 61 0 10 0;
#X connect 61 0 11 0;
#X connect 61 0 13 0;
#X connect 61 0 14 0;
#X connect 61 0 15 0;
#X connect 61 0 16 0;
#X connect 61 0 17 0;
#X connect 61 0 18 0;
#X connect 61 0 19 0;
#X connect 61 0 20 0;
#X connect 61 0 21 0;
#X connect 61 0 22 0;
#X connect 61 0 23 0;
#X connect 61 0 24 0;
#X connect 61 0 25 0;
#X connect 61 0 26 0;
#X connect 61 0 27 0;
#X connect 61 0 29 0;
#X connect 61 0 28 0;
#X connect 62 0 93 0;
#X connect 63 0 94 0;
#X connect 64 0 95 0;
#X connect 65 0 96 0;
#X connect 66 0 97 0;
#X connect 67 0 98 0;
#X connect 68 0 99 0;
#X connect 69 0 100 0;
#X connect 70 0 101 0;
#X connect 71 0 102 0;
#X connect 72 0 103 0;
#X connect 73 0 104 0;
#X connect 74 0 105 0;
#X connect 75 0 106 0;
#X connect 76 0 107 0;
#X connect 77 0 108 0;
#X connect 78 0 109 0;
#X connect 79 0 110 0;
#X connect 80 0 111 0;
#X connect 81 0 112 0;
#X connect 82 0 113 0;
#X connect 83 0 114 0;
#X connect 84 0 115 0;
#X connect 85 0 116 0;
#X connect 86 0 117 0;
#X connect 87 0 118 0;
#X connect 88 0 119 0;
#X connect 89 0 120 0;
#X connect 90 0 121 0;
#X connect 91 0 122 0;
#X connect 92 0 0 2;
#X connect 92 0 1 2;
#X connect 92 0 2 2;
#X connect 92 0 3 2;
#X connect 92 0 4 2;
#X connect 92 0 5 2;
#X connect 92 0 6 2;
#X connect 92 0 7 2;
#X connect 92 0 8 2;
#X connect 92 0 9 2;
#X connect 92 0 10 2;
#X connect 92 0 11 2;
#X connect 92 0 12 2;
#X connect 92 0 13 2;
#X connect 92 0 14 2;
#X connect 92 0 15 2;
#X connect 92 0 16 2;
#X connect 92 0 17 2;
#X connect 92 0 18 2;
#X connect 92 0 19 2;
#X connect 92 0 20 2;
#X connect 92 0 21 2;
#X connect 92 0 22 2;
#X connect 92 0 23 2;
#X connect 92 0 24 2;
#X connect 92 0 25 2;
#X connect 92 0 26 2;
#X connect 92 0 27 2;
#X connect 92 0 29 2;
#X connect 92 0 28 2;
#X restore 127 159 pd eq-30-2;
#X obj 207 79 vline~ 50;
#X floatatom 207 58 5 0 0 0 - - -;
#X obj 47 96 *~;
#X obj 127 96 *~;
#X obj 76 113 dac~ 1;
#X obj 156 113 dac~ 2;
#N canvas 0 169 1280 752 eq-30-1 0;
#X obj 57 378 bp~ 25;
#X obj 77 398 bp~ 31.5;
#X obj 97 418 bp~ 40;
#X obj 157 378 bp~ 50;
#X obj 177 398 bp~ 63;
#X obj 197 418 bp~ 80;
#X obj 247 378 bp~ 100;
#X obj 267 398 bp~ 125;
#X obj 287 418 bp~ 160;
#X obj 347 378 bp~ 200;
#X obj 367 398 bp~ 250;
#X obj 387 418 bp~ 315;
#X obj 447 378 bp~ 400;
#X obj 467 398 bp~ 500;
#X obj 487 418 bp~ 630;
#X obj 547 378 bp~ 800;
#X obj 567 398 bp~ 1000;
#X obj 587 418 bp~ 1250;
#X obj 647 378 bp~ 1600;
#X obj 667 398 bp~ 2000;
#X obj 687 418 bp~ 2500;
#X obj 737 378 bp~ 3150;
#X obj 757 398 bp~ 4000;
#X obj 777 418 bp~ 5000;
#X obj 837 378 bp~ 6300;
#X obj 857 398 bp~ 8000;
#X obj 877 418 bp~ 10000;
#X obj 937 378 bp~ 12500;
#X obj 977 418 bp~ 20000;
#X obj 957 398 bp~ 16000;
#X obj 57 498 env~;
#X obj 77 478 env~;
#X obj 97 458 env~;
#X obj 157 498 env~;
#X obj 177 478 env~;
#X obj 197 458 env~;
#X obj 247 498 env~;
#X obj 267 478 env~;
#X obj 287 458 env~;
#X obj 347 498 env~;
#X obj 367 478 env~;
#X obj 387 458 env~;
#X obj 447 498 env~;
#X obj 467 478 env~;
#X obj 487 458 env~;
#X obj 547 498 env~;
#X obj 567 478 env~;
#X obj 587 458 env~;
#X obj 647 498 env~;
#X obj 667 478 env~;
#X obj 687 458 env~;
#X obj 737 498 env~;
#X obj 757 478 env~;
#X obj 777 458 env~;
#X obj 837 498 env~;
#X obj 857 478 env~;
#X obj 877 458 env~;
#X obj 937 498 env~;
#X obj 957 478 env~;
#X obj 57 498 env~;
#X obj 977 458 env~;
#X obj 21 -10 inlet~;
#X floatatom 57 568 5 0 0 0 - - -;
#X floatatom 77 548 5 0 0 0 - - -;
#X floatatom 97 528 5 0 0 0 - - -;
#X floatatom 157 568 5 0 0 0 - - -;
#X floatatom 177 548 5 0 0 0 - - -;
#X floatatom 197 528 5 0 0 0 - - -;
#X floatatom 247 568 5 0 0 0 - - -;
#X floatatom 267 548 5 0 0 0 - - -;
#X floatatom 287 528 5 0 0 0 - - -;
#X floatatom 347 568 5 0 0 0 - - -;
#X floatatom 367 548 5 0 0 0 - - -;
#X floatatom 387 528 5 0 0 0 - - -;
#X floatatom 447 568 5 0 0 0 - - -;
#X floatatom 467 548 5 0 0 0 - - -;
#X floatatom 487 528 5 0 0 0 - - -;
#X floatatom 547 568 5 0 0 0 - - -;
#X floatatom 567 548 5 0 0 0 - - -;
#X floatatom 587 528 5 0 0 0 - - -;
#X floatatom 647 568 5 0 0 0 - - -;
#X floatatom 667 548 5 0 0 0 - - -;
#X floatatom 687 528 5 0 0 0 - - -;
#X floatatom 737 568 5 0 0 0 - - -;
#X floatatom 757 548 5 0 0 0 - - -;
#X floatatom 777 528 5 0 0 0 - - -;
#X floatatom 837 568 5 0 0 0 - - -;
#X floatatom 857 548 5 0 0 0 - - -;
#X floatatom 877 528 5 0 0 0 - - -;
#X floatatom 937 568 5 0 0 0 - - -;
#X floatatom 957 548 5 0 0 0 - - -;
#X floatatom 977 528 5 0 0 0 - - -;
#X obj 1029 -10 inlet;
#X obj 57 597 vsl 15 128 0 127 0 0 empty empty empty 0 -9 0 10 -262144
-1 -1 0 1;
#X obj 77 597 vsl 15 128 0 127 0 0 empty empty empty 0 -9 0 10 -262144
-1 -1 0 1;
#X obj 97 597 vsl 15 128 0 127 0 0 empty empty empty 0 -9 0 10 -262144
-1 -1 0 1;
#X obj 157 597 vsl 15 128 0 127 0 0 empty empty empty 0 -9 0 10 -262144
-1 -1 0 1;
#X obj 177 597 vsl 15 128 0 127 0 0 empty empty empty 0 -9 0 10 -262144
-1 -1 0 1;
#X obj 197 597 vsl 15 128 0 127 0 0 empty empty empty 0 -9 0 10 -262144
-1 -1 0 1;
#X obj 247 597 vsl 15 128 0 127 0 0 empty empty empty 0 -9 0 10 -262144
-1 -1 0 1;
#X obj 267 597 vsl 15 128 0 127 0 0 empty empty empty 0 -9 0 10 -262144
-1 -1 0 1;
#X obj 287 597 vsl 15 128 0 127 0 0 empty empty empty 0 -9 0 10 -262144
-1 -1 1608 1;
#X obj 347 597 vsl 15 128 0 127 0 0 empty empty empty 0 -9 0 10 -262144
-1 -1 853 1;
#X obj 367 597 vsl 15 128 0 127 0 0 empty empty empty 0 -9 0 10 -262144
-1 -1 552 1;
#X obj 387 597 vsl 15 128 0 127 0 0 empty empty empty 0 -9 0 10 -262144
-1 -1 845 1;
#X obj 447 597 vsl 15 128 0 127 0 0 empty empty empty 0 -9 0 10 -262144
-1 -1 174 1;
#X obj 467 597 vsl 15 128 0 127 0 0 empty empty empty 0 -9 0 10 -262144
-1 -1 1616 1;
#X obj 487 597 vsl 15 128 0 127 0 0 empty empty empty 0 -9 0 10 -262144
-1 -1 922 1;
#X obj 547 597 vsl 15 128 0 127 0 0 empty empty empty 0 -9 0 10 -262144
-1 -1 0 1;
#X obj 567 597 vsl 15 128 0 127 0 0 empty empty empty 0 -9 0 10 -262144
-1 -1 0 1;
#X obj 587 597 vsl 15 128 0 127 0 0 empty empty empty 0 -9 0 10 -262144
-1 -1 0 1;
#X obj 647 597 vsl 15 128 0 127 0 0 empty empty empty 0 -9 0 10 -262144
-1 -1 1008 1;
#X obj 667 597 vsl 15 128 0 127 0 0 empty empty empty 0 -9 0 10 -262144
-1 -1 803 1;
#X obj 687 597 vsl 15 128 0 127 0 0 empty empty empty 0 -9 0 10 -262144
-1 -1 1767 1;
#X obj 737 597 vsl 15 128 0 127 0 0 empty empty empty 0 -9 0 10 -262144
-1 -1 1226 1;
#X obj 757 597 vsl 15 128 0 127 0 0 empty empty empty 0 -9 0 10 -262144
-1 -1 579 1;
#X obj 777 597 vsl 15 128 0 127 0 0 empty empty empty 0 -9 0 10 -262144
-1 -1 1345 1;
#X obj 837 597 vsl 15 128 0 127 0 0 empty empty empty 0 -9 0 10 -262144
-1 -1 1900 1;
#X obj 857 597 vsl 15 128 0 127 0 0 empty empty empty 0 -9 0 10 -262144
-1 -1 652 1;
#X obj 877 597 vsl 15 128 0 127 0 0 empty empty empty 0 -9 0 10 -262144
-1 -1 1718 1;
#X obj 937 597 vsl 15 128 0 127 0 0 empty empty empty 0 -9 0 10 -262144
-1 -1 1526 1;
#X obj 957 597 vsl 15 128 0 127 0 0 empty empty empty 0 -9 0 10 -262144
-1 -1 1928 1;
#X obj 977 597 vsl 15 128 0 127 0 0 empty empty empty 0 -9 0 10 -262144
-1 -1 2286 1;
#X connect 0 0 30 0;
#X connect 1 0 31 0;
#X connect 2 0 32 0;
#X connect 3 0 33 0;
#X connect 4 0 34 0;
#X connect 5 0 35 0;
#X connect 6 0 36 0;
#X connect 7 0 37 0;
#X connect 8 0 38 0;
#X connect 9 0 39 0;
#X connect 10 0 40 0;
#X connect 11 0 41 0;
#X connect 12 0 42 0;
#X connect 13 0 43 0;
#X connect 14 0 44 0;
#X connect 15 0 45 0;
#X connect 16 0 46 0;
#X connect 17 0 47 0;
#X connect 18 0 48 0;
#X connect 19 0 49 0;
#X connect 20 0 50 0;
#X connect 21 0 51 0;
#X connect 22 0 52 0;
#X connect 23 0 53 0;
#X connect 24 0 54 0;
#X connect 25 0 55 0;
#X connect 26 0 56 0;
#X connect 27 0 57 0;
#X connect 28 0 60 0;
#X connect 29 0 58 0;
#X connect 30 0 62 0;
#X connect 31 0 63 0;
#X connect 32 0 64 0;
#X connect 33 0 65 0;
#X connect 34 0 66 0;
#X connect 35 0 67 0;
#X connect 36 0 68 0;
#X connect 37 0 69 0;
#X connect 38 0 70 0;
#X connect 39 0 71 0;
#X connect 40 0 72 0;
#X connect 41 0 73 0;
#X connect 42 0 74 0;
#X connect 43 0 75 0;
#X connect 44 0 76 0;
#X connect 45 0 77 0;
#X connect 46 0 78 0;
#X connect 47 0 79 0;
#X connect 48 0 80 0;
#X connect 49 0 81 0;
#X connect 50 0 82 0;
#X connect 51 0 83 0;
#X connect 52 0 84 0;
#X connect 53 0 85 0;
#X connect 54 0 86 0;
#X connect 55 0 87 0;
#X connect 56 0 88 0;
#X connect 57 0 89 0;
#X connect 58 0 90 0;
#X connect 60 0 91 0;
#X connect 61 0 0 0;
#X connect 61 0 1 0;
#X connect 61 0 2 0;
#X connect 61 0 3 0;
#X connect 61 0 4 0;
#X connect 61 0 5 0;
#X connect 61 0 6 0;
#X connect 61 0 7 0;
#X connect 61 0 8 0;
#X connect 61 0 9 0;
#X connect 61 0 12 0;
#X connect 61 0 10 0;
#X connect 61 0 11 0;
#X connect 61 0 13 0;
#X connect 61 0 14 0;
#X connect 61 0 15 0;
#X connect 61 0 16 0;
#X connect 61 0 17 0;
#X connect 61 0 18 0;
#X connect 61 0 19 0;
#X connect 61 0 20 0;
#X connect 61 0 21 0;
#X connect 61 0 22 0;
#X connect 61 0 23 0;
#X connect 61 0 24 0;
#X connect 61 0 25 0;
#X connect 61 0 26 0;
#X connect 61 0 27 0;
#X connect 61 0 29 0;
#X connect 61 0 28 0;
#X connect 62 0 93 0;
#X connect 63 0 94 0;
#X connect 64 0 95 0;
#X connect 65 0 96 0;
#X connect 66 0 97 0;
#X connect 67 0 98 0;
#X connect 68 0 99 0;
#X connect 69 0 100 0;
#X connect 70 0 101 0;
#X connect 71 0 102 0;
#X connect 72 0 103 0;
#X connect 73 0 104 0;
#X connect 74 0 105 0;
#X connect 75 0 106 0;
#X connect 76 0 107 0;
#X connect 77 0 108 0;
#X connect 78 0 109 0;
#X connect 79 0 110 0;
#X connect 80 0 111 0;
#X connect 81 0 112 0;
#X connect 82 0 113 0;
#X connect 83 0 114 0;
#X connect 84 0 115 0;
#X connect 85 0 116 0;
#X connect 86 0 117 0;
#X connect 87 0 118 0;
#X connect 88 0 119 0;
#X connect 89 0 120 0;
#X connect 90 0 121 0;
#X connect 91 0 122 0;
#X connect 92 0 0 2;
#X connect 92 0 1 2;
#X connect 92 0 2 2;
#X connect 92 0 3 2;
#X connect 92 0 4 2;
#X connect 92 0 5 2;
#X connect 92 0 6 2;
#X connect 92 0 7 2;
#X connect 92 0 8 2;
#X connect 92 0 9 2;
#X connect 92 0 10 2;
#X connect 92 0 11 2;
#X connect 92 0 12 2;
#X connect 92 0 13 2;
#X connect 92 0 14 2;
#X connect 92 0 15 2;
#X connect 92 0 16 2;
#X connect 92 0 17 2;
#X connect 92 0 18 2;
#X connect 92 0 19 2;
#X connect 92 0 20 2;
#X connect 92 0 21 2;
#X connect 92 0 22 2;
#X connect 92 0 23 2;
#X connect 92 0 24 2;
#X connect 92 0 25 2;
#X connect 92 0 26 2;
#X connect 92 0 27 2;
#X connect 92 0 29 2;
#X connect 92 0 28 2;
#X restore 47 159 pd eq-30-1;
#X msg 207 26 0.5;
#X msg 269 26 1000;
#X obj 64 10 loadbang;
#X msg 64 44 \; pd dsp 1;
#X connect 0 0 5 0;
#X connect 0 1 6 0;
#X connect 1 0 2 1;
#X connect 1 0 9 1;
#X connect 3 0 5 1;
#X connect 3 0 6 1;
#X connect 4 0 3 0;
#X connect 5 0 7 0;
#X connect 5 0 9 0;
#X connect 6 0 2 0;
#X connect 6 0 8 0;
#X connect 10 0 4 0;
#X connect 11 0 1 0;
#X connect 12 0 10 0;
#X connect 12 0 11 0;
#X connect 12 0 13 0;
